name Walk1.mot
datacolumns 19
datarows 25
range 3.15600000 3.18000000
endheader

                time	   L_ground_force_vx	   L_ground_force_vy	   L_ground_force_vz	   L_ground_force_px	   L_ground_force_py	   L_ground_force_pz	   R_ground_force_vx	   R_ground_force_vy	   R_ground_force_vz	   R_ground_force_px	   R_ground_force_py	   R_ground_force_pz	   L_ground_torque_x	   L_ground_torque_y	   L_ground_torque_z	   R_ground_torque_x	   R_ground_torque_y	   R_ground_torque_z	
          3.15600000	          1.39362257	         68.49899319	         -1.83452462	          0.00333630	          0.00000000	          0.00204677	         -0.00000000	          0.00000000	          0.00000000	          0.00000000	          0.00000000	          0.00000000	          0.00000000	         -0.01252989	          0.00000000	          0.00000000	          0.00000000	          0.00000000	
          3.15700000	          1.81558082	         77.18848374	         -1.76975771	         -0.01214030	          0.00000000	          0.00004584	         -0.00000000	          0.00000000	          0.00000000	          0.00000000	          0.00000000	          0.00000000	          0.00000000	         -0.00788575	          0.00000000	          0.00000000	          0.00000000	          0.00000000	
          3.15800000	          2.17174962	         86.03465788	         -1.71666832	         -0.02754884	          0.00000000	         -0.00194192	         -0.00000000	          0.00000000	          0.00000000	          0.00000000	          0.00000000	          0.00000000	          0.00000000	         -0.00290383	          0.00000000	          0.00000000	          0.00000000	          0.00000000	
          3.15900000	          2.45616344	         95.02141693	         -1.67613231	         -0.04283613	          0.00000000	         -0.00390903	         -0.00000000	          0.00000000	          0.00000000	          0.00000000	          0.00000000	          0.00000000	          0.00000000	          0.00242710	          0.00000000	          0.00000000	          0.00000000	          0.00000000	
          3.16000000	          2.66289970	        104.13148155	         -1.64898262	         -0.05795253	          0.00000000	         -0.00584872	         -0.00000000	          0.00000000	          0.00000000	          0.00000000	          0.00000000	          0.00000000	          0.00000000	          0.00811907	          0.00000000	          0.00000000	          0.00000000	          0.00000000	
          3.16100000	          2.78613876	        113.34642635	         -1.63599500	         -0.07285308	          0.00000000	         -0.00775501	         -0.00000000	          0.00000000	          0.00000000	          0.00000000	          0.00000000	          0.00000000	          0.00000000	          0.01418501	          0.00000000	          0.00000000	          0.00000000	          0.00000000	
          3.16200000	          2.82023348	        122.64678544	         -1.63786982	         -0.08749764	          0.00000000	         -0.00962271	         -0.00000000	          0.00000000	          0.00000000	          0.00000000	          0.00000000	          0.00000000	          0.00000000	          0.02063855	          0.00000000	          0.00000000	          0.00000000	          0.00000000	
          3.16300000	          2.75978988	        132.01224914	         -1.65520895	         -0.10185052	          0.00000000	         -0.01144732	         -0.00000000	          0.00000000	          0.00000000	          0.00000000	          0.00000000	          0.00000000	          0.00000000	          0.02749375	          0.00000000	          0.00000000	          0.00000000	          0.00000000	
          3.16400000	          2.59976117	        141.42196750	         -1.68848662	         -0.11588023	          0.00000000	         -0.01322494	         -0.00000000	          0.00000000	          0.00000000	          0.00000000	          0.00000000	          0.00000000	          0.00000000	          0.03476490	          0.00000000	          0.00000000	          0.00000000	          0.00000000	
          3.16500000	          2.33555548	        150.85495867	         -1.73801457	         -0.12955926	          0.00000000	         -0.01495225	         -0.00000000	          0.00000000	          0.00000000	          0.00000000	          0.00000000	          0.00000000	          0.00000000	          0.04246647	          0.00000000	          0.00000000	          0.00000000	          0.00000000	
          3.16600000	          1.96315537	        160.29059646	         -1.80390344	         -0.14286379	          0.00000000	         -0.01662644	         -0.00000000	          0.00000000	          0.00000000	          0.00000000	          0.00000000	          0.00000000	          0.00000000	          0.05061311	          0.00000000	          0.00000000	          0.00000000	          0.00000000	
          3.16700000	          1.47924344	        169.70912621	         -1.88602504	         -0.15577349	          0.00000000	         -0.01824517	         -0.00000000	          0.00000000	          0.00000000	          0.00000000	          0.00000000	          0.00000000	          0.00000000	          0.05921981	          0.00000000	          0.00000000	          0.00000000	          0.00000000	
          3.16800000	          0.88132389	        179.09214178	         -1.98398167	         -0.16827129	          0.00000000	         -0.01980658	         -0.00000000	          0.00000000	          0.00000000	          0.00000000	          0.00000000	          0.00000000	          0.00000000	          0.06830193	          0.00000000	          0.00000000	          0.00000000	          0.00000000	
          3.16900000	          0.16782708	        188.42296048	         -2.09708900	         -0.18034318	          0.00000000	         -0.02130922	         -0.00000000	          0.00000000	          0.00000000	          0.00000000	          0.00000000	          0.00000000	          0.00000000	          0.07787518	          0.00000000	          0.00000000	          0.00000000	          0.00000000	
          3.17000000	         -0.66181427	        197.68685486	         -2.22437654	         -0.19197797	          0.00000000	         -0.02275204	         -0.00000000	          0.00000000	          0.00000000	          0.00000000	          0.00000000	          0.00000000	          0.00000000	          0.08795547	          0.00000000	          0.00000000	          0.00000000	          0.00000000	
          3.17100000	         -1.60712463	        206.87113202	         -2.36460650	         -0.20316715	          0.00000000	         -0.02413436	         -0.00000000	          0.00000000	          0.00000000	          0.00000000	          0.00000000	          0.00000000	          0.00000000	          0.09855840	          0.00000000	          0.00000000	          0.00000000	          0.00000000	
          3.17200000	         -2.66658199	        215.96507897	         -2.51630822	         -0.21390468	          0.00000000	         -0.02545584	         -0.00000000	          0.00000000	          0.00000000	          0.00000000	          0.00000000	          0.00000000	          0.00000000	          0.10969864	          0.00000000	          0.00000000	          0.00000000	          0.00000000	
          3.17300000	         -3.83764672	        224.95980761	         -2.67782325	         -0.22418680	          0.00000000	         -0.02671646	         -0.00000000	          0.00000000	          0.00000000	          0.00000000	          0.00000000	          0.00000000	          0.00000000	          0.12138901	          0.00000000	          0.00000000	          0.00000000	          0.00000000	
          3.17400000	         -5.11681491	        233.84803679	         -2.84735535	         -0.23401188	          0.00000000	         -0.02791646	         -0.00000000	          0.00000000	          0.00000000	          0.00000000	          0.00000000	          0.00000000	          0.00000000	          0.13363954	          0.00000000	          0.00000000	          0.00000000	          0.00000000	
          3.17500000	         -6.49968692	        242.62384408	         -3.02302032	         -0.24338021	          0.00000000	         -0.02905635	         -0.00000000	          0.00000000	          0.00000000	          0.00000000	          0.00000000	          0.00000000	          0.00000000	          0.14645668	          0.00000000	          0.00000000	          0.00000000	          0.00000000	
          3.17600000	         -7.98104253	        251.28241294	         -3.20289176	         -0.25229389	          0.00000000	         -0.03013685	         -0.00000000	          0.00000000	          0.00000000	          0.00000000	          0.00000000	          0.00000000	          0.00000000	          0.15984266	          0.00000000	          0.00000000	          0.00000000	          0.00000000	
          3.17700000	         -9.55491629	        259.81979388	         -3.38504064	         -0.26075665	          0.00000000	         -0.03115888	         -0.00000000	          0.00000000	          0.00000000	          0.00000000	          0.00000000	          0.00000000	          0.00000000	          0.17379510	          0.00000000	          0.00000000	          0.00000000	          0.00000000	
          3.17800000	        -11.21466904	        268.23269255	         -3.56756772	         -0.26877367	          0.00000000	         -0.03212355	         -0.00000000	          0.00000000	          0.00000000	          0.00000000	          0.00000000	          0.00000000	          0.00000000	          0.18830676	          0.00000000	          0.00000000	          0.00000000	          0.00000000	
          3.17900000	        -12.95305452	        276.51829211	         -3.74862910	         -0.27635146	          0.00000000	         -0.03303210	         -0.00000000	          0.00000000	          0.00000000	          0.00000000	          0.00000000	          0.00000000	          0.00000000	          0.20336541	          0.00000000	          0.00000000	          0.00000000	          0.00000000	
          3.18000000	        -14.76228130	        284.67411383	         -3.92645548	         -0.28349775	          0.00000000	         -0.03388594	         -0.00000000	          0.00000000	          0.00000000	          0.00000000	          0.00000000	          0.00000000	          0.00000000	          0.21895368	          0.00000000	          0.00000000	          0.00000000	          0.00000000	
